<svg width="201" height="201" viewBox="0 0 201 201" fill="none" xmlns="http://www.w3.org/2000/svg">
<path d="M100.273 200.072C45.0433 200.072 0.273438 155.302 0.273438 100.072C0.273438 44.8416 45.0433 0.0717773 100.273 0.0717773C155.504 0.0717773 200.273 44.8416 200.273 100.072C200.273 155.302 155.504 200.072 100.273 200.072ZM100.273 10.9505C51.3195 10.9505 11.1521 51.1178 11.1521 100.072C11.1521 149.026 51.3195 189.193 100.273 189.193C149.227 189.193 189.395 149.026 189.395 100.072C189.395 51.1178 149.227 10.9505 100.273 10.9505Z" fill="#A6C0FE"/>
<path d="M41.696 172.457L31.6542 167.854C34.583 160.741 43.788 156.975 54.2483 152.373C64.2901 147.77 76.8424 142.331 76.8424 135.636V126.431C73.0767 123.503 67.219 116.808 66.3822 107.185C63.4533 104.256 58.8508 98.8164 58.8508 92.1218C58.8508 87.9377 60.5245 84.5904 61.7797 82.4984C60.9429 77.8958 59.2692 68.6908 59.2692 61.5778C59.2692 38.5653 75.1688 23.5026 100.273 23.5026C107.386 23.5026 116.173 25.5945 120.776 30.6155C132.073 32.7075 141.278 46.0967 141.278 61.5778C141.278 71.6197 139.604 79.9879 138.349 83.7536C139.604 85.8456 140.859 88.7745 140.859 92.1218C140.859 100.072 137.094 105.092 133.328 107.603C132.491 117.226 127.052 123.503 123.704 126.431V135.636C123.704 141.494 134.165 145.26 143.788 149.026C155.085 153.21 166.801 157.394 170.566 167.017L160.106 170.783C158.432 165.762 148.391 162.415 140.022 159.067C127.052 154.465 112.407 149.026 112.407 135.636V120.574L114.918 118.9C115.336 118.9 122.449 113.879 122.449 104.256V100.49L125.796 99.2348C126.215 98.8163 129.562 97.1427 129.562 92.1218C129.562 90.4482 128.307 88.7745 127.889 88.3561L125.796 85.8456L126.633 82.9167C126.633 82.9167 129.562 73.7117 129.562 61.1594C129.562 50.6992 123.704 41.0757 117.428 41.0757H114.081L112.407 38.1469C111.152 36.0549 106.131 33.9628 99.4366 33.9628C80.6082 33.9628 69.3111 44.0046 69.3111 61.1594C69.3111 69.1092 72.24 82.0799 72.24 82.0799L73.0768 85.0088L70.9847 87.1008C70.9847 87.1008 69.3111 89.1929 69.3111 91.2849C69.3111 94.2138 73.0767 97.9795 74.7504 99.6531L76.8424 101.327V104.256C76.8424 113.461 84.7923 118.482 84.7923 118.482L87.3027 120.155V135.218C87.3027 149.026 71.8215 156.139 58.014 161.996C52.1562 165.344 43.3696 169.528 41.696 172.457Z" fill="#A6C0FE"/>
</svg>
