<svg width="200" height="200" viewBox="0 0 200 200" fill="none" xmlns="http://www.w3.org/2000/svg">
<path d="M100 200C44.7699 200 0 155.23 0 100C0 44.7699 44.7699 0 100 0C155.23 0 200 44.7699 200 100C200 155.23 155.23 200 100 200ZM100 10.8787C51.046 10.8787 10.8787 51.046 10.8787 100C10.8787 148.954 51.046 189.121 100 189.121C148.954 189.121 189.121 148.954 189.121 100C189.121 51.046 148.954 10.8787 100 10.8787Z" fill="#A6C0FE"/>
<path d="M41.4226 172.385L31.3807 167.782C34.3096 160.669 43.5146 156.904 53.9749 152.301C64.0167 147.699 76.569 142.259 76.569 135.565V126.36C72.8033 123.431 66.9456 116.736 66.1087 107.113C63.1799 104.184 58.5774 98.7446 58.5774 92.05C58.5774 87.8659 60.251 84.5186 61.5063 82.4266C60.6694 77.8241 58.9958 68.619 58.9958 61.5061C58.9958 38.4935 74.8954 23.4308 100 23.4308C107.113 23.4308 115.9 25.5228 120.502 30.5437C131.799 32.6357 141.004 46.0249 141.004 61.5061C141.004 71.5479 139.331 79.9161 138.075 83.6818C139.331 85.7739 140.586 88.7027 140.586 92.05C140.586 99.9998 136.82 105.021 133.054 107.531C132.218 117.155 126.778 123.431 123.431 126.36V135.565C123.431 141.422 133.891 145.188 143.515 148.954C154.812 153.138 166.527 157.322 170.293 166.945L159.833 170.711C158.159 165.69 148.117 162.343 139.749 158.996C126.778 154.393 112.134 148.954 112.134 135.565V120.502L114.644 118.828C115.063 118.828 122.176 113.807 122.176 104.184V100.418L125.523 99.163C125.941 98.7446 129.289 97.0709 129.289 92.05C129.289 90.3764 128.034 88.7027 127.615 88.2843L125.523 85.7739L126.36 82.8449C126.36 82.8449 129.289 73.6399 129.289 61.0876C129.289 50.6274 123.431 41.0039 117.155 41.0039H113.808L112.134 38.0751C110.879 35.9831 105.858 33.891 99.1632 33.891C80.3347 33.891 69.0377 43.9328 69.0377 61.0876C69.0377 69.0374 71.9665 82.0081 71.9665 82.0081L72.8033 84.937L70.7113 87.029C70.7113 87.029 69.0377 89.1211 69.0377 91.2131C69.0377 94.142 72.8033 97.9077 74.4769 99.5813L76.569 101.255V104.184C76.569 113.389 84.5188 118.41 84.5188 118.41L87.0292 120.083V135.146C87.0292 148.954 71.5481 156.067 57.7405 161.924C51.8828 165.272 43.0962 169.456 41.4226 172.385Z" fill="#A6C0FE"/>
<path d="M18 144C40.6409 124.074 36.1351 137.644 40.6409 124.074C41.0131 119.424 40.8697 116.184 40.8697 111.937C38.9905 110.832 35.6318 103.801 35.0644 97.8578C33.597 97.7175 31.2663 96.1093 30.5799 89.7384C30.2169 86.3169 31.6782 84.3939 32.5689 83.7849C30.1711 75.6861 25.1803 50.654 41.7849 48.0639C43.4933 44.7005 47.8649 43 53.5543 43C60.7325 43.1471 62.4155 43.1914 66 46.5" stroke="#A6C0FE" stroke-width="9" stroke-miterlimit="10" stroke-linecap="round"/>
<path d="M184 144C161.359 124.074 165.865 137.644 161.359 124.074C160.987 119.424 161.13 116.184 161.13 111.937C163.009 110.832 166.368 103.801 166.936 97.8578C168.403 97.7175 170.734 96.1093 171.42 89.7384C171.783 86.3169 170.322 84.3939 169.431 83.7849C171.829 75.6861 176.82 50.654 160.215 48.0639C158.507 44.7005 154.135 43 148.446 43C141.268 43.1471 139.585 43.1914 136 46.5" stroke="#A6C0FE" stroke-width="9" stroke-miterlimit="10" stroke-linecap="round"/>
</svg>
